<?xml version="1.0" encoding="UTF-8" standalone="no"?>
<!-- Created with Inkscape (http://www.inkscape.org/) -->

<svg
   xmlns:dc="http://purl.org/dc/elements/1.1/"
   xmlns:cc="http://creativecommons.org/ns#"
   xmlns:rdf="http://www.w3.org/1999/02/22-rdf-syntax-ns#"
   xmlns:svg="http://www.w3.org/2000/svg"
   xmlns="http://www.w3.org/2000/svg"
   xmlns:sodipodi="http://sodipodi.sourceforge.net/DTD/sodipodi-0.dtd"
   xmlns:inkscape="http://www.inkscape.org/namespaces/inkscape"
   viewBox="0 0 182 45"
   id="svg2"
   version="1.1"
   inkscape:version="0.91 r13725"
   sodipodi:docname="logo_md.svg">
  <defs
     id="defs4" />
  <sodipodi:namedview
     id="base"
     pagecolor="#ffffff"
     bordercolor="#666666"
     borderopacity="1.0"
     inkscape:pageopacity="0.0"
     inkscape:pageshadow="2"
     inkscape:zoom="4"
     inkscape:cx="142.02793"
     inkscape:cy="6.5736177"
     inkscape:document-units="px"
     inkscape:current-layer="layer1"
     showgrid="true"
     inkscape:snap-bbox="true"
     inkscape:window-width="1440"
     inkscape:window-height="772"
     inkscape:window-x="-8"
     inkscape:window-y="-8"
     inkscape:window-maximized="1">
    <inkscape:grid
       type="xygrid"
       id="grid5151"
       empspacing="5"
       visible="true"
       enabled="true"
       snapvisiblegridlinesonly="true" />
  </sodipodi:namedview>
  <metadata
     id="metadata7">
    <rdf:RDF>
      <cc:Work
         rdf:about="">
        <dc:format>image/svg+xml</dc:format>
        <dc:type
           rdf:resource="http://purl.org/dc/dcmitype/StillImage" />
        <dc:title></dc:title>
      </cc:Work>
    </rdf:RDF>
  </metadata>
  <g
     inkscape:label="Layer 1"
     inkscape:groupmode="layer"
     id="layer1"
     transform="translate(0,-1007.3622)">
    <g
       id="g6378"
       transform="matrix(1.2521134,0,0,-1.249136,93.155367,1052.1775)">
      <path
         inkscape:connector-curvature="0"
         d="m 0,0 -2.975,0 0,11.882 -1.961,-5.856 -1.324,0 -1.963,5.856 0,-11.882 -2.941,0 0,22.267 1.471,0 L -5.6,10.67 -1.473,22.267 0,22.267 0,0 Z"
         style="fill:#343433;fill-opacity:1;fill-rule:nonzero;stroke:none"
         id="path6380" />
    </g>
    <g
       id="g6382"
       transform="matrix(1.2521134,0,0,-1.249136,103.84478,1044.1789)">
      <path
         inkscape:connector-curvature="0"
         d="M 0,0 -1.213,9.315 -2.424,0 0,0 Z m 3.721,-6.403 -2.856,0 -0.549,3.95 -3.056,0 -0.52,-3.95 -2.713,0 3.375,22.266 2.946,0 3.373,-22.266 z"
         style="fill:#343433;fill-opacity:1;fill-rule:nonzero;stroke:none"
         id="path6384" />
    </g>
    <g
       id="g6386"
       transform="matrix(1.2521134,0,0,-1.249136,123.53139,1052.1775)">
      <path
         inkscape:connector-curvature="0"
         d="m 0,0 -1.473,0 -4.99,12.689 0,-12.689 -2.943,0 0,22.267 1.472,0 4.961,-12.778 0,12.778 2.973,0 L 0,0 Z"
         style="fill:#343433;fill-opacity:1;fill-rule:nonzero;stroke:none"
         id="path6388" />
    </g>
    <g
       id="g6390"
       transform="matrix(1.2521134,0,0,-1.249136,140.1463,1052.1775)">
      <path
         inkscape:connector-curvature="0"
         d="m 0,0 -1.471,0 -4.99,12.689 0,-12.689 -2.945,0 0,22.267 1.472,0 4.961,-12.778 0,12.778 2.973,0 L 0,0 Z"
         style="fill:#343433;fill-opacity:1;fill-rule:nonzero;stroke:none"
         id="path6392" />
    </g>
    <path
       inkscape:connector-curvature="0"
       d="m 148.81568,1052.1769 -3.83272,0 0,-27.8146 3.83272,0 0,27.8146 z"
       style="fill:#343433;fill-opacity:1;fill-rule:nonzero;stroke:none"
       id="path6394" />
    <g
       id="g6396"
       transform="matrix(1.2521134,0,0,-1.249136,165.39405,1052.1775)">
      <path
         inkscape:connector-curvature="0"
         d="m 0,0 -1.471,0 -4.992,12.689 0,-12.689 -2.943,0 0,22.267 1.472,0 4.961,-12.778 0,12.778 2.973,0 L 0,0 Z"
         style="fill:#343433;fill-opacity:1;fill-rule:nonzero;stroke:none"
         id="path6398" />
    </g>
    <g
       id="g6400"
       transform="matrix(1.2521134,0,0,-1.249136,181.86472,1051.3517)">
      <path
         inkscape:connector-curvature="0"
         d="m 0,0 c -0.867,-0.538 -1.961,-0.809 -3.289,-0.809 -4.311,0 -6.463,3.772 -6.463,11.309 0,7.501 2.039,11.253 6.115,11.253 0.674,0 1.321,-0.087 1.934,-0.262 l 0,-2.364 c -0.539,0.113 -0.992,0.17 -1.356,0.17 -2.406,0 -3.605,-2.931 -3.605,-8.797 0,-5.902 1.164,-8.856 3.49,-8.856 0.137,0 0.24,0.01 0.316,0.03 l 0,4.615 c 0,1.092 -0.125,1.846 -0.375,2.252 -0.191,0.325 -0.519,0.488 -0.978,0.488 -0.232,0 -0.397,-0.01 -0.492,-0.028 l 0,2.423 c 0.326,0.056 0.662,0.086 1.01,0.086 C -1.23,11.51 0,9.684 0,6.028 L 0,0 Z"
         style="fill:#343433;fill-opacity:1;fill-rule:nonzero;stroke:none"
         id="path6402" />
    </g>
    <g
       id="g6448"
       transform="matrix(1.2521134,0,0,-1.249136,8.5056116,1007.3622)">
      <path
         inkscape:connector-curvature="0"
         d="m 0,0 20.963,0 0,-22.049 C 22.164,-14.783 23.195,-7.35 24.311,0 l 20.964,0 0,-36.024 -19.783,0 0,30.906 C 23.877,-15.348 22.32,-25.64 20.865,-36.024 l -19.681,0 0,32.187 c -2.13,-10.642 -4.026,-21.507 -6.108,-32.187 l -1.869,0 c 2.242,11.898 4.472,23.809 6.693,35.728 C -0.109,-0.153 -0.115,-0.017 0,0"
         style="fill:#343433;fill-opacity:1;fill-rule:evenodd;stroke:none"
         id="path6450" />
    </g>
  </g>
</svg>
